PathFileType	4	(X/Y/Z)	 s10c0203.trc
DataRate	CameraRate	NumFrames	NumMarkers	Units	OrigDataRate	OrigDataStartFrame	OrigNumFrames
200	200	7	49	mm	200	1501	2000
Frame#	Time	racr			lacr			c7			jug			rlel			rdr			llel			ldr			s2			lic			ric			lasi			rasi			rpsi			lpsi			rgt			lgt			rth1			rth2			rth3			rth4			rlfc			rmfc			rsh1			rsh2			rsh3			rsh4			rlmal			rmmal			rcal			rtoe			rmt5			lth1			lth2			lth4			lth3			llfc			lmfc			llmal			lcal			lmt5			lsh1			lsh2			lsh3			lsh4			ltoe			SBIKE			LBIKE			RBIKE			
		X1	Y1	Z1	X2	Y2	Z2	X3	Y3	Z3	X4	Y4	Z4	X5	Y5	Z5	X6	Y6	Z6	X7	Y7	Z7	X8	Y8	Z8	X9	Y9	Z9	X10	Y10	Z10	X11	Y11	Z11	X12	Y12	Z12	X13	Y13	Z13	X14	Y14	Z14	X15	Y15	Z15	X16	Y16	Z16	X17	Y17	Z17	X18	Y18	Z18	X19	Y19	Z19	X20	Y20	Z20	X21	Y21	Z21	X22	Y22	Z22	X23	Y23	Z23	X24	Y24	Z24	X25	Y25	Z25	X26	Y26	Z26	X27	Y27	Z27	X28	Y28	Z28	X29	Y29	Z29	X30	Y30	Z30	X31	Y31	Z31	X32	Y32	Z32	X33	Y33	Z33	X34	Y34	Z34	X35	Y35	Z35	X36	Y36	Z36	X37	Y37	Z37	X38	Y38	Z38	X39	Y39	Z39	X40	Y40	Z40	X41	Y41	Z41	X42	Y42	Z42	X43	Y43	Z43	X44	Y44	Z44	X45	Y45	Z45	X46	Y46	Z46	X47	Y47	Z47	X48	Y48	Z48	X49	Y49	Z49	
1501	7.5050	432.427160	1245.486540	-29.756118	413.517281	1230.411468	-350.893110	403.755667	1287.642375	-174.331873	395.060912	1140.979090	-183.630261	422.666538	1007.210233	87.961505	598.887927	911.066440	6.744423	431.559880	996.733758	-481.023299	615.725527	910.574417	-390.408584	-108.755339	1079.007394	-184.694137	43.088656	1127.687544	-336.691346	69.081716	1077.794412	-50.991878	88.066700	1044.109555	-326.667962	81.273455	1006.246568	-73.167981	-68.025354	1129.597287	-125.931931	-67.698598	1152.225242	-234.075796	-18.530586	967.790773	-10.998242	-36.794369	974.675900	-392.515424	85.930878	867.007435	-2.958006	167.742949	838.475610	-23.000086	221.559078	773.438282	-35.555778	186.528364	870.302210	-30.670411	298.552655	708.104896	-58.891751	273.283181	700.413399	-175.540126	197.883862	652.561156	-25.309084	141.932302	584.841743	-41.390878	61.553633	553.701198	-43.514531	160.058626	566.412697	-69.581091	-27.024262	499.067545	-59.255033	6.290291	493.332770	-139.396613	-79.029479	513.566248	-109.538268	97.305294	345.848914	-94.154737	12.787150	376.199885	-37.212500	65.447878	870.685421	-409.935752	145.947681	839.102343	-399.732613	167.117317	868.238434	-393.923371	199.998748	769.222225	-386.911696	289.595841	704.059950	-371.022569	290.729885	702.112277	-253.944915	212.672155	334.449062	-374.506292	160.908575	294.551190	-333.559960	339.252566	264.119783	-386.429523	241.175365	592.332348	-399.630031	259.289220	507.022120	-389.494183	230.071600	422.963825	-387.704045	287.443310	507.748250	-363.697054	404.570940	309.391557	-331.570864	-204.375315	831.453601	-224.476284	-78.155364	81.766203	-423.688630	-102.630757	80.566711	-24.422055	
1502	7.5100	430.921766	1245.701952	-25.663681	415.945162	1230.193030	-348.545785	400.278868	1286.255214	-180.164949	395.382844	1140.727059	-181.083375	421.494250	1006.043543	88.495028	598.671986	911.106975	7.110800	432.675965	996.894158	-480.662509	615.929152	910.582011	-390.143020	-108.463937	1077.818904	-187.167201	42.599108	1125.743028	-338.904162	67.877425	1077.593635	-52.442339	87.751076	1042.215971	-329.523243	81.586480	1006.189672	-75.274321	-68.572981	1128.583857	-129.291391	-67.306677	1151.014415	-237.055728	-17.168729	967.153987	-11.315809	-38.784167	971.678805	-395.012693	88.822743	871.206155	-5.047235	171.635773	844.998142	-24.523720	227.449750	781.471659	-35.484554	189.169652	877.457830	-33.078704	304.751795	717.018005	-59.460214	281.281063	707.418056	-176.138186	204.013342	661.614403	-25.187921	147.285032	594.222004	-40.930044	66.765324	563.481444	-42.986195	165.342703	575.401667	-69.075072	-22.380854	509.375047	-58.754765	9.486460	502.900899	-139.175088	-74.172768	524.301329	-109.014712	100.996287	355.442494	-94.009555	16.719126	386.174734	-37.005826	61.894952	865.486769	-411.318221	141.620780	832.149709	-400.688583	163.481587	861.004078	-395.473217	193.804216	761.283651	-386.588206	282.501290	696.373981	-370.571889	283.693870	693.348229	-254.531053	208.647992	324.323682	-374.132184	157.242817	284.583288	-332.887098	335.469600	254.176832	-386.424506	233.430803	583.345196	-399.325205	252.593309	498.161770	-389.573581	224.456750	413.664937	-387.464753	281.076810	499.043998	-364.114722	400.951368	299.197996	-331.608713	-204.412943	831.466209	-224.529804	-78.167627	81.785522	-423.687946	-102.636581	80.556209	-24.430103	
1503	7.5150	428.882564	1245.365106	-22.184924	418.460095	1229.880189	-346.122465	400.367172	1286.197815	-177.597219	395.706353	1140.459664	-178.401709	420.310778	1004.847671	89.153564	598.478312	911.163462	7.519609	433.654533	997.082420	-480.481648	616.049425	910.591088	-389.870039	-107.992129	1077.015714	-189.835687	43.033057	1124.085474	-342.268512	66.504627	1077.575186	-53.942117	87.644922	1040.504285	-332.360521	81.828030	1006.381911	-76.651055	-68.691277	1128.414288	-132.304202	-66.672157	1150.312187	-239.965200	-15.896243	967.257033	-12.024038	-39.771353	970.365671	-397.060210	91.446747	875.812858	-6.991695	175.138811	851.956545	-25.666873	233.185799	790.011093	-35.941317	191.609682	884.842762	-35.391967	311.186031	726.544496	-59.460326	287.243359	714.192011	-176.984359	210.016064	670.930448	-25.175136	152.997571	603.616179	-40.587962	72.345037	573.337718	-42.559351	170.919450	584.763829	-68.568089	-17.340492	519.412100	-58.385903	14.353022	512.828066	-138.758438	-68.656140	534.750140	-108.160199	105.261285	364.922552	-93.789635	21.267634	396.133693	-36.664639	58.456750	862.138331	-412.869464	137.693632	826.747499	-402.283746	159.782599	854.611726	-396.882660	186.964574	754.137450	-386.427435	275.038593	688.504447	-369.957555	279.142517	685.135372	-253.916731	203.829374	314.683469	-373.628477	152.945377	274.931439	-332.148268	331.119138	244.332542	-386.457320	224.915221	574.410476	-398.975961	245.312645	489.536791	-389.736105	217.953126	404.747553	-387.177409	274.237796	490.668926	-364.708647	396.802566	289.194424	-331.756039	-204.405719	831.482502	-224.600767	-78.172001	81.787441	-423.694463	-102.652857	80.557738	-24.427564	
1504	7.5200	426.795379	1244.815168	-18.720163	420.988314	1229.476767	-343.486422	400.423455	1286.072885	-174.987260	396.029293	1140.178873	-175.592791	419.185179	1003.571746	89.979721	598.285608	911.134875	7.912472	434.646534	997.299928	-480.461947	616.143651	910.578264	-389.615823	-107.474361	1076.754062	-192.665583	43.883568	1122.682965	-345.328962	65.200998	1077.704070	-55.354717	87.722187	1038.748389	-334.798520	82.116096	1006.858590	-77.939843	-69.205964	1128.335176	-135.289622	-65.789294	1150.026601	-242.980563	-15.131842	967.630576	-12.914278	-38.748692	970.490551	-398.782830	93.342716	880.559251	-9.182580	178.102806	859.162063	-26.059349	237.940561	798.828862	-35.880338	194.133798	893.210222	-36.636173	317.523447	736.188640	-59.636296	293.810245	722.312183	-177.416710	215.787047	680.589422	-25.144138	158.937301	613.354528	-40.291339	78.165942	583.219911	-42.185593	176.885432	594.116510	-68.170064	-11.711628	529.251504	-58.086099	19.843437	522.625090	-138.360940	-62.796209	544.786820	-107.924590	110.239119	374.188919	-93.600665	26.411619	405.755185	-36.392334	55.307685	860.132489	-414.515750	133.050118	822.247594	-403.087965	156.152041	849.156675	-397.820334	179.789146	747.906522	-386.586686	267.049900	680.515145	-369.635064	268.420077	675.343972	-255.646769	198.317958	304.967379	-372.411885	148.097408	265.633652	-331.370736	326.099377	234.929783	-386.549371	216.702998	565.641657	-399.324967	237.676534	480.903449	-389.971957	210.585348	395.944876	-386.428285	266.996153	482.294745	-365.289695	392.081162	279.290136	-331.893453	-204.379649	831.478398	-224.691027	-78.171785	81.761312	-423.707822	-102.641569	80.570240	-24.442974	
1505	7.5250	424.636244	1244.249793	-15.302970	423.369775	1229.203991	-340.586522	400.475486	1285.877222	-172.340887	396.350972	1139.887408	-172.667130	418.160334	1002.200320	90.863739	598.047701	911.018116	8.335473	435.580862	997.583738	-480.523096	616.254983	910.540376	-389.440895	-107.091040	1076.822830	-195.664747	45.269917	1121.709747	-348.044554	63.845630	1078.330656	-56.940981	88.349716	1037.370617	-336.781100	82.322284	1007.503699	-78.935999	-69.981971	1128.855298	-138.268440	-64.870353	1149.888679	-245.886216	-14.782954	968.640926	-14.369093	-36.984975	970.884952	-400.161269	94.817072	885.552984	-10.876018	180.608664	866.632457	-26.849601	242.186460	807.801809	-35.562659	195.687370	900.548127	-37.525713	323.838453	746.180027	-59.742033	300.778125	731.627272	-177.928136	222.153617	690.297517	-25.253583	165.181365	623.060305	-40.055031	84.408244	593.028429	-41.877962	183.760067	604.071182	-67.561748	-5.319741	538.986897	-57.651538	25.713170	532.027316	-137.969740	-56.511664	554.822826	-107.612614	116.239707	383.315615	-93.342841	32.373747	415.370606	-35.824281	52.298728	858.694445	-416.240953	127.963585	817.882795	-403.398022	152.357861	844.359467	-398.155512	172.863611	742.384837	-386.816152	258.678729	672.335973	-369.381527	259.924902	665.832904	-256.382716	192.247654	296.303335	-371.869063	142.923108	256.640606	-330.251063	320.594550	225.748110	-386.650177	208.526839	556.673014	-400.370809	229.908560	472.229208	-390.312840	203.252394	387.102926	-385.996247	259.447602	474.005320	-366.046033	386.823053	269.723392	-332.051601	-204.365382	831.450886	-224.774577	-78.149869	81.781595	-423.698716	-102.649509	80.566871	-24.446311	
1506	7.5300	422.444085	1243.465396	-11.916979	425.978114	1228.483000	-337.318262	400.549283	1285.771235	-169.565343	396.671723	1139.588193	-169.638950	417.072718	1000.800552	91.907433	597.817661	910.898124	8.695152	436.403231	997.890793	-480.738943	616.416166	910.686440	-389.781296	-106.652049	1077.219272	-198.809207	47.158709	1121.131517	-350.457294	62.558240	1079.102535	-58.523039	89.527641	1036.387822	-338.282437	82.415560	1008.683299	-79.760560	-70.175482	1128.911692	-141.516402	-63.804442	1150.060697	-248.900868	-14.892770	970.345391	-16.811886	-35.547726	971.044454	-401.135672	95.858835	890.543680	-12.086015	182.509937	873.838180	-27.364271	245.723608	816.939156	-34.994541	196.719427	908.281040	-38.705628	330.101699	756.541303	-59.760729	306.375725	741.454767	-178.242851	228.404390	700.222023	-25.318002	171.553219	633.040973	-39.861678	90.925895	602.789326	-41.645726	190.284311	613.776028	-67.241100	1.488595	548.251155	-57.413790	33.304155	541.859334	-137.797880	-49.456490	563.907523	-107.493046	122.705306	391.943068	-92.787467	38.774004	424.489380	-35.590039	49.488020	857.249584	-417.218677	123.765125	814.328568	-403.859245	148.962035	839.979592	-398.658626	166.121700	737.473690	-387.246348	250.043511	664.041600	-369.409972	253.627583	657.751770	-256.875945	185.747751	288.055593	-371.382497	137.079704	248.515976	-329.830316	314.558547	216.732828	-386.794412	200.157503	547.726776	-401.148186	221.970585	463.595896	-390.706776	195.874078	378.275484	-385.616737	251.627960	465.717947	-366.659704	381.116538	260.202667	-332.318017	-204.349487	831.458986	-224.830040	-78.147988	81.745619	-423.692408	-102.644010	80.577256	-24.432928	
1507	7.5350	420.117270	1242.648491	-8.621977	428.593348	1227.808759	-334.369499	400.741297	1285.736019	-166.848006	396.992249	1139.283838	-166.526907	416.177345	999.343646	93.013443	597.564435	910.861386	9.056233	437.321055	998.363910	-481.028805	616.523105	910.615611	-389.744492	-105.981654	1077.805170	-202.052190	49.337315	1120.648231	-352.687861	61.388558	1080.208361	-60.136441	90.661657	1035.497462	-339.182783	82.405351	1010.147326	-80.404258	-70.514824	1129.384911	-144.641507	-62.656815	1150.200374	-252.107276	-16.127727	973.654936	-18.095033	-34.305931	971.231333	-401.949635	96.847796	895.803228	-12.723553	183.955001	881.434378	-27.572317	248.969187	826.484056	-34.209339	196.929549	915.643457	-39.333447	336.143007	767.192077	-59.919447	312.582627	752.179428	-178.600593	234.852796	710.613070	-25.007297	178.172292	642.915644	-39.652806	97.728450	612.310347	-41.491653	196.473627	623.616464	-67.149036	8.795653	557.355122	-57.252735	39.463940	550.517610	-137.270439	-41.477862	574.110775	-106.106719	128.739625	400.052019	-92.877044	45.907200	433.231218	-35.216079	46.954123	856.269094	-417.931166	119.749073	811.150176	-404.277914	145.675278	835.711683	-398.905377	159.608124	732.858193	-387.763031	241.268087	655.673544	-369.868260	244.880009	649.479568	-257.308884	178.905988	280.212585	-371.098304	130.700334	240.978633	-329.759667	307.956906	208.232080	-387.052049	191.595442	539.041042	-401.975036	213.989052	455.007313	-391.010914	188.421005	369.605072	-385.312386	243.803812	457.355536	-366.991815	374.831853	251.245403	-332.578140	-204.338217	831.462699	-224.901843	-78.159479	81.737101	-423.697856	-102.645172	80.576557	-24.448654	
